{
	"patcher" : 	{
		"fileversion" : 1,
		"rect" : [ 25.0, 69.0, 344.0, 339.0 ],
		"bglocked" : 0,
		"defrect" : [ 25.0, 69.0, 344.0, 339.0 ],
		"openrect" : [ 0.0, 0.0, 0.0, 0.0 ],
		"openinpresentation" : 0,
		"default_fontsize" : 10.0,
		"default_fontface" : 0,
		"default_fontname" : "Arial Bold",
		"gridonopen" : 0,
		"gridsize" : [ 15.0, 15.0 ],
		"gridsnaponopen" : 0,
		"toolbarvisible" : 1,
		"boxanimatetime" : 200,
		"imprint" : 0,
		"enablehscroll" : 1,
		"enablevscroll" : 1,
		"devicewidth" : 0.0,
		"boxes" : [ 			{
				"box" : 				{
					"maxclass" : "newobj",
					"text" : "+ 1",
					"patching_rect" : [ 165.0, 89.0, 32.5, 18.0 ],
					"id" : "obj-7",
					"outlettype" : [ "int" ],
					"fontname" : "Arial Bold",
					"fontsize" : 10.0,
					"numinlets" : 2,
					"numoutlets" : 1
				}

			}
, 			{
				"box" : 				{
					"maxclass" : "toggle",
					"patching_rect" : [ 165.0, 62.0, 20.0, 20.0 ],
					"id" : "obj-6",
					"outlettype" : [ "int" ],
					"numinlets" : 1,
					"numoutlets" : 1
				}

			}
, 			{
				"box" : 				{
					"maxclass" : "newobj",
					"text" : "r ---no_quantize",
					"patching_rect" : [ 165.0, 34.0, 86.0, 18.0 ],
					"id" : "obj-4",
					"outlettype" : [ "" ],
					"fontname" : "Arial Bold",
					"fontsize" : 10.0,
					"numinlets" : 0,
					"numoutlets" : 1
				}

			}
, 			{
				"box" : 				{
					"maxclass" : "button",
					"patching_rect" : [ 253.0, 72.0, 20.0, 20.0 ],
					"id" : "obj-3",
					"outlettype" : [ "bang" ],
					"numinlets" : 1,
					"numoutlets" : 1
				}

			}
, 			{
				"box" : 				{
					"maxclass" : "newobj",
					"text" : "gate 2",
					"patching_rect" : [ 165.0, 120.0, 107.0, 18.0 ],
					"id" : "obj-1",
					"outlettype" : [ "", "" ],
					"fontname" : "Arial Bold",
					"fontsize" : 10.0,
					"numinlets" : 2,
					"numoutlets" : 2
				}

			}
, 			{
				"box" : 				{
					"maxclass" : "button",
					"patching_rect" : [ 45.0, 225.0, 20.0, 20.0 ],
					"id" : "obj-199",
					"outlettype" : [ "bang" ],
					"numinlets" : 1,
					"numoutlets" : 1
				}

			}
, 			{
				"box" : 				{
					"maxclass" : "button",
					"patching_rect" : [ 45.0, 119.0, 20.0, 20.0 ],
					"id" : "obj-183",
					"outlettype" : [ "bang" ],
					"numinlets" : 1,
					"numoutlets" : 1
				}

			}
, 			{
				"box" : 				{
					"maxclass" : "newobj",
					"text" : "r ---quantize_bang",
					"patching_rect" : [ 45.0, 87.0, 95.0, 18.0 ],
					"id" : "obj-184",
					"outlettype" : [ "" ],
					"fontname" : "Arial Bold",
					"fontsize" : 10.0,
					"numinlets" : 0,
					"numoutlets" : 1
				}

			}
, 			{
				"box" : 				{
					"maxclass" : "newobj",
					"text" : "onebang",
					"patching_rect" : [ 45.0, 180.0, 52.0, 18.0 ],
					"id" : "obj-193",
					"outlettype" : [ "bang", "bang" ],
					"fontname" : "Arial Bold",
					"fontsize" : 10.0,
					"numinlets" : 2,
					"numoutlets" : 2
				}

			}
, 			{
				"box" : 				{
					"maxclass" : "inlet",
					"patching_rect" : [ 253.0, 25.0, 25.0, 25.0 ],
					"id" : "obj-8",
					"outlettype" : [ "" ],
					"numinlets" : 0,
					"numoutlets" : 1,
					"comment" : ""
				}

			}
, 			{
				"box" : 				{
					"maxclass" : "outlet",
					"patching_rect" : [ 45.0, 284.0, 25.0, 25.0 ],
					"id" : "obj-9",
					"numinlets" : 1,
					"numoutlets" : 0,
					"comment" : ""
				}

			}
, 			{
				"box" : 				{
					"maxclass" : "message",
					"text" : "stop",
					"patching_rect" : [ 60.0, 150.0, 50.0, 16.0 ],
					"id" : "obj-2",
					"outlettype" : [ "" ],
					"fontname" : "Arial Bold",
					"fontsize" : 10.0,
					"numinlets" : 2,
					"numoutlets" : 1
				}

			}
 ],
		"lines" : [ 			{
				"patchline" : 				{
					"source" : [ "obj-1", 1 ],
					"destination" : [ "obj-2", 0 ],
					"hidden" : 0,
					"midpoints" : [ 262.5, 145.5, 69.5, 145.5 ]
				}

			}
, 			{
				"patchline" : 				{
					"source" : [ "obj-2", 0 ],
					"destination" : [ "obj-193", 0 ],
					"hidden" : 0,
					"midpoints" : [  ]
				}

			}
, 			{
				"patchline" : 				{
					"source" : [ "obj-8", 0 ],
					"destination" : [ "obj-3", 0 ],
					"hidden" : 0,
					"midpoints" : [  ]
				}

			}
, 			{
				"patchline" : 				{
					"source" : [ "obj-7", 0 ],
					"destination" : [ "obj-1", 0 ],
					"hidden" : 0,
					"midpoints" : [  ]
				}

			}
, 			{
				"patchline" : 				{
					"source" : [ "obj-6", 0 ],
					"destination" : [ "obj-7", 0 ],
					"hidden" : 0,
					"midpoints" : [  ]
				}

			}
, 			{
				"patchline" : 				{
					"source" : [ "obj-4", 0 ],
					"destination" : [ "obj-6", 0 ],
					"hidden" : 0,
					"midpoints" : [  ]
				}

			}
, 			{
				"patchline" : 				{
					"source" : [ "obj-3", 0 ],
					"destination" : [ "obj-1", 1 ],
					"hidden" : 0,
					"midpoints" : [  ]
				}

			}
, 			{
				"patchline" : 				{
					"source" : [ "obj-199", 0 ],
					"destination" : [ "obj-9", 0 ],
					"hidden" : 0,
					"midpoints" : [  ]
				}

			}
, 			{
				"patchline" : 				{
					"source" : [ "obj-193", 0 ],
					"destination" : [ "obj-199", 0 ],
					"hidden" : 0,
					"midpoints" : [  ]
				}

			}
, 			{
				"patchline" : 				{
					"source" : [ "obj-184", 0 ],
					"destination" : [ "obj-183", 0 ],
					"hidden" : 0,
					"midpoints" : [  ]
				}

			}
, 			{
				"patchline" : 				{
					"source" : [ "obj-183", 0 ],
					"destination" : [ "obj-193", 0 ],
					"hidden" : 0,
					"midpoints" : [  ]
				}

			}
, 			{
				"patchline" : 				{
					"source" : [ "obj-1", 1 ],
					"destination" : [ "obj-199", 0 ],
					"hidden" : 0,
					"midpoints" : [ 262.5, 219.0, 54.5, 219.0 ]
				}

			}
, 			{
				"patchline" : 				{
					"source" : [ "obj-1", 0 ],
					"destination" : [ "obj-193", 1 ],
					"hidden" : 0,
					"midpoints" : [ 174.5, 171.5, 87.5, 171.5 ]
				}

			}
 ]
	}

}
